<svg xmlns="http://www.w3.org/2000/svg" xmlns:svgjs="http://svgjs.com/svgjs" xmlns:xlink="http://www.w3.org/1999/xlink" width="288" height="288"><svg xmlns="http://www.w3.org/2000/svg" width="288" height="288" version="1.0" viewBox="0 0 512 512"><g fill="#fb9400" class="color000 svgShape" transform="matrix(.1 0 0 -.1 0 512)"><path d="M1794 5106c-176-34-299-89-522-235-253-165-404-229-562-238-144-9-275 38-413 149-81 65-126 83-176 68-54-15-82-39-103-87-17-39-19-58-13-132 21-263 99-450 251-607 245-251 661-382 1274-401 431-13 744 56 980 216 25 17 48 31 52 31 5 0 29-15 55-34 150-107 382-181 649-207 143-14 461-6 649 16 438 51 751 177 949 379 152 157 230 344 251 607 6 74 4 93-13 132-21 48-49 72-103 87-50 15-95-3-178-70-84-67-189-122-270-140-33-8-90-11-150-7-159 8-288 64-551 237-230 151-350 204-532 236-167 29-335 8-485-61-75-34-207-121-238-155-10-11-23-20-29-20-6 0-47 27-91 61-90 68-231 140-320 164-83 22-272 28-361 11zM300 3220c0-212 5-439 10-505 50-589 266-1146 630-1625 110-144 331-376 475-497 214-179 530-370 794-478 140-58 316-115 351-115 36 0 195 51 329 105 245 99 476 230 696 394 180 135 461 413 595 591 367 485 580 1034 630 1625 5 66 10 293 10 505l0 386-105-52c-183-90-441-163-685-194-52-7-100-14-106-15-6-2-14-40-17-87-30-387-292-703-672-810-79-22-89-23-670-23-530 0-597 2-658 18-392 100-658 413-694 816l-8 85-125 18c-270 38-490 101-675 192l-105 52 0-386z" class="color000 svgShape"/><path d="M2510 3494 c-210 -108 -492 -167 -807 -168 l-193 -1 0 -36 c0 -56 36-184 72 -252 42 -81 164 -203 245 -245 34 -18 96 -41 139 -52 72 -19 112 -20
594 -20 482 0 522 1 594 20 43 11 105 34 139 52 81 42 203 164 245 245 36 68
72 195 72 252 l0 36 -119 -4 c-297 -8 -653 60 -870 167 -34 18 -64 31 -65 31
0 -1 -21 -12 -46 -25z" class="color000 svgShape"/></g></svg></svg>