<svg xmlns="http://www.w3.org/2000/svg" xmlns:svgjs="http://svgjs.com/svgjs" xmlns:xlink="http://www.w3.org/1999/xlink" width="288" height="288"><svg xmlns="http://www.w3.org/2000/svg" width="288" height="288" version="1.0" viewBox="0 0 742 980"><g fill="#fb9400" class="color000 svgShape" transform="matrix(.1 0 0 -.1 0 980)"><path d="M2050 9776 c-205 -86 -433 -268 -545 -434 -26 -38 -56 -101 -70 -145-73 -228 -72 -438 0 -722 57 -223 86 -298 777 -1965 168 -404 426 -1027 573
-1384 l269 -648 -58 -117 c-205 -412 -450 -715 -728 -898 -150 -99 -318 -173
-663 -295 -646 -228 -960 -398 -1198 -648 -190 -199 -315 -437 -374 -711 -26
-120 -26 -477 0 -599 131 -612 589 -1065 1202 -1186 136 -27 416 -25 551 4
294 63 559 202 770 404 197 189 243 282 785 1576 315 752 359 852 369 852 10
0 96 -200 418 -970 273 -652 437 -1031 498 -1150 18 -36 53 -92 79 -125 66
-87 248 -268 339 -336 137 -104 365 -203 566 -246 107 -23 508 -26 605 -5 174
38 399 136 557 243 124 84 305 266 386 388 121 181 197 372 234 586 27 157 21
435 -11 587 -98 452 -378 793 -862 1047 -194 102 -330 157 -824 331 -126 45
-281 105 -342 135 -334 160 -609 435 -842 845 -41 71 -129 260 -205 440 -256
599 -1638 3913 -1971 4725 -70 171 -140 339 -155 375 -32 77 -46 82 -130 46z
m1793 -5045 c83 -40 122 -86 149 -174 35 -116 6 -221 -82 -301 -63 -57 -122
-80 -205 -80 -111 0 -192 52 -262 171 -24 41 -28 59 -28 123 1 92 30 156 101
218 99 88 208 102 327 43z m-2123 -2356 c291 -65 564 -333 650 -635 31 -108
38 -290 15 -401 -38 -190 -132 -358 -276 -493 -184 -173 -386 -245 -654 -233
-244 11 -405 83 -583 259 -117 116 -191 239 -238 395 -24 77 -27 106 -28 228
0 149 10 204 61 335 113 287 368 497 671 555 97 18 279 14 382 -10z m4410 1
c205 -45 446 -227 569 -431 46 -75 97 -231 111 -335 32 -230 -40 -473 -195
-667 -187 -233 -439 -346 -738 -330 -144 8 -258 36 -376 93 -83 41 -107 59
-200 153 -163 163 -227 277 -266 470 -23 112 -16 304 14 409 97 334 356 573
701 647 82 18 277 13 380 -9z" class="color000 svgShape"/><path d="M5251 9759 c-27 -62 -735 -1774 -876 -2119 -133 -325 -332 -825 -365
-918 l-23 -63 28 -72 c86 -220 490 -1178 575 -1362 41 -88 42 -89 55 -65 70
133 1240 2997 1314 3216 37 111 71 304 77 439 10 218 -34 395 -136 549 -59 87
-189 214 -285 278 -97 64 -262 147 -307 155 -37 5 -38 5 -57 -38z" class="color000 svgShape"/></g></svg></svg>