<svg xmlns="http://www.w3.org/2000/svg" xmlns:svgjs="http://svgjs.com/svgjs" xmlns:xlink="http://www.w3.org/1999/xlink" width="288" height="288"><svg xmlns="http://www.w3.org/2000/svg" width="288" height="288" version="1.0" viewBox="0 0 1184 1280"><g fill="#fb9400" class="color000 svgShape" transform="matrix(.1 0 0 -.1 0 1280)"><path d="M2170 12789c-74-5-256-16-405-24-281-17-564-41-864-75-315-36-341-44-398-119-46-59-63-127-63-244 0-169 46-296 139-382 150-139 218-213 249-271 47-90 93-240 162-531 159-669 188-768 285-970 119-250 271-426 431-500 124-57 629-151 994-184 171-16 588-16 745 0 154 16 493 66 615 93 297 63 542 190 730 379 167 167 268 343 398 689 39 102 102 268 142 370 40 102 96 256 125 343 59 177 85 219 158 256 102 51 437 67 562 28 69-22 137-69 168-116 15-23 55-133 93-258 156-515 278-801 449-1058 165-247 352-414 601-538 495-248 1264-276 2349-87 273 47 390 98 530 231 203 193 309 443 440 1032 101 452 143 601 215 754 70 151 134 226 271 324 99 70 156 170 179 315 23 145-33 329-113 367-117 55-508 111-1032 148-240 17-1203 23-1505 10-839-37-1596-132-2280-286-285-64-328-68-593-62-252 5-395 23-857 107-833 150-1292 210-1840 240-107 6-259 15-336 20-165 12-549 11-744-1zM295 9122c-82-51-150-167-199-335-70-243-111-700-87-977 6-74 16-196 22-270 32-415 122-969 245-1510 101-444 255-1006 319-1170 143-360 379-753 746-1240 792-1051 2136-2348 3054-2949 599-392 1061-584 1556-648 289-37 599-10 931 82 733 201 1333 619 1989 1385 294 344 1027 1288 1351 1740 1036 1447 1498 2631 1588 4065 6 94 15 229 20 300 19 245 12 523-21 915-32 379-116 570-250 570-79 0-142-73-188-220-40-125-63-249-112-608-70-520-107-721-171-947-115-408-277-649-539-802-58-34-162-99-230-144-179-118-226-139-320-139-92 0-152 19-293 93-190 100-351 209-1266 862-690 492-744 529-910 624-293 168-555 241-756 211-43-6-162-39-264-72-288-94-367-92-735 14-178 51-181 51-320 52-127 0-148-3-225-28-151-50-286-128-527-304-291-212-380-261-696-386-429-170-480-206-721-506-159-198-243-280-437-425-316-237-501-316-739-316-240 0-452 97-660 302-458 451-842 1461-910 2392-12 165-27 242-59 305-45 87-124 123-186 84zm6589-2011c350-73 599-233 853-548 136-169 385-577 458-750 153-366 130-677-67-898-166-185-478-291-588-199-36 31-39 68-9 134l20 45-26 22c-37 32-417 258-565 336-248 131-522 235-715 273-124 25-354 25-453 1-164-39-292-102-567-278-99-63-205-129-235-146-30-18-71-48-90-68l-35-36-1-123c-1-146-13-177-84-214-41-21-54-23-155-19-126 5-226 31-395 103-217 91-297 163-343 309-70 225 27 650 234 1018 294 523 670 833 1169 963 268 70 684 104 1195 99 258-3 314-6 399-24z" class="color000 svgShape"/></g></svg></svg>